<svg xmlns="http://www.w3.org/2000/svg" width="156.52" height="37.962" viewBox="0 0 156.52 37.962">
  <g id="astrazeneca-seeklogo.com" transform="translate(-30.5 -15.566)">
    <path id="Path_1712" data-name="Path 1712" d="M35.469,62.673l2.6-6.957,2.429,7.012H35.469Zm7.564,7.067h2.374L39.224,52.9H36.9L30.5,69.74h2.374l1.877-5.19h6.4Zm11.208-3.589c0,1.38-1.1,2.1-3.037,2.1a3.3,3.3,0,0,1-3.147-1.436l-2.264.387c.883,1.822,2.705,2.65,5.3,2.65,3.534,0,5.356-1.933,5.356-4.031,0-2.65-2.485-3.368-5.3-3.975-1.38-.276-2.982-.773-2.982-1.988,0-.883.828-1.877,2.54-1.877a3.217,3.217,0,0,1,2.926,1.656l1.988-.828a4.942,4.942,0,0,0-4.638-2.429c-2.982,0-4.914,1.436-4.914,3.755,0,2.65,2.264,3.147,4.472,3.644C52.42,64.274,54.242,64.716,54.242,66.151ZM61.2,52.9l-2.209.939v3.092H56.948V58.7h2.043v8.227c-.055,1.656-.055,2.871,2.485,2.871a14.339,14.339,0,0,0,2.1-.221V67.863a6.785,6.785,0,0,1-1.38.276c-.939,0-.939-.663-.939-2.153V58.7h2.319V56.931H61.254V52.9Zm4.251,4.031V69.74H67.6V63.832a6.12,6.12,0,0,1,.552-3.313c.718-1.159,1.712-1.546,3.865-1.6V56.71a4.6,4.6,0,0,0-4.362,2.485V56.931ZM84.665,52.9V55h9.607L84.72,67.587V69.8H97.033V67.753H87.26l9.552-12.7v-2.1H84.665Zm25.84,4.031V69.74h2.153V62.452a3.56,3.56,0,0,1,.939-2.871,3.334,3.334,0,0,1,2.429-.994,2.757,2.757,0,0,1,2.761,1.767,8.779,8.779,0,0,1,.11,2.1v7.233h2.153V62.176a8.892,8.892,0,0,0-.221-2.6,4.23,4.23,0,0,0-4.2-2.926,4.394,4.394,0,0,0-3.975,2.264V56.986h-2.153Zm33.349,9.718a3,3,0,0,1-2.982,1.656c-1.436,0-3.865-.883-3.865-5.135,0-1.16.221-5.135,3.755-5.135a3.06,3.06,0,0,1,2.982,1.822l1.988-.828a5.724,5.724,0,0,0-5.08-2.54c-4.086,0-6.074,3.258-6.074,6.9,0,3.147,1.712,6.626,6.239,6.626a5.37,5.37,0,0,0,4.859-2.54Zm-43.73-4.638h6.791c-.166-3.368-2.1-3.92-3.423-3.92C101.671,58.09,100.4,59.415,100.125,62.01Zm8.558,5.3a5.26,5.26,0,0,1-4.914,2.65c-3.755,0-5.963-2.54-5.963-6.847,0-4.8,3.147-6.626,5.853-6.626,2.374,0,4.583,1.325,5.356,4.528a12.736,12.736,0,0,1,.221,2.6H100.07c-.055,2.153.828,4.859,3.865,4.8a3.091,3.091,0,0,0,2.65-1.436Zm15.9-5.3h6.791c-.166-3.368-2.1-3.92-3.423-3.92C126.076,58.09,124.806,59.415,124.585,62.01Zm8.5,5.3a5.26,5.26,0,0,1-4.914,2.65c-3.755,0-5.963-2.54-5.963-6.847,0-4.8,3.147-6.626,5.853-6.626,2.374,0,4.583,1.325,5.356,4.528a12.736,12.736,0,0,1,.221,2.6h-9.221c-.055,2.153.828,4.859,3.865,4.8a3.091,3.091,0,0,0,2.65-1.436Zm24.46,2.429h-2.264a11.312,11.312,0,0,1-.276-1.877,5.623,5.623,0,0,1-4.307,2.043c-2.485,0-4.307-1.491-4.307-3.644a3.425,3.425,0,0,1,.552-1.932c.718-1.1,2.1-1.932,5.908-2.264L154.9,61.9v-.331c0-1.325,0-3.534-2.871-3.534-1.767,0-2.429.883-2.6,1.656l-1.988-.828c.055-.055.055-.166.11-.221a4.737,4.737,0,0,1,4.417-2.264,6.064,6.064,0,0,1,3.7,1.1,4.274,4.274,0,0,1,1.38,3.2l.11,6.57A10.5,10.5,0,0,0,157.548,69.74Zm-2.982-3.534c.331-.718.331-.994.331-2.871a32.2,32.2,0,0,0-3.368.607c-2.374.5-2.761,1.436-2.761,2.319,0,1.049.828,1.877,2.429,1.877A3.46,3.46,0,0,0,154.566,66.207ZM83.174,69.74H80.966a11.314,11.314,0,0,1-.276-1.877,5.623,5.623,0,0,1-4.307,2.043c-2.485,0-4.362-1.491-4.362-3.644a3.425,3.425,0,0,1,.552-1.932c.718-1.1,2.1-1.932,5.908-2.264l2.043-.166v-.331c0-1.325,0-3.534-2.871-3.534-1.822,0-2.429.883-2.6,1.656l-1.988-.828c.055-.055.055-.166.11-.221A4.737,4.737,0,0,1,77.6,56.378a6.064,6.064,0,0,1,3.7,1.1,4.274,4.274,0,0,1,1.38,3.2l.055,6.57A15.9,15.9,0,0,0,83.174,69.74Zm-2.926-3.534c.331-.718.331-.994.331-2.871a32.2,32.2,0,0,0-3.368.607c-2.374.5-2.761,1.436-2.761,2.319,0,1.049.828,1.877,2.429,1.877A3.564,3.564,0,0,0,80.248,66.207Z" transform="translate(0 -16.72)" fill="#fff"/>
    <path id="Path_1713" data-name="Path 1713" d="M273.08,42.253l-.994.663c-3.865-2.153-12.147-6.294-12.865-6.626-.773-.387-2.1-.939-1.932-2.209.221-1.767,3.368-5.687,4.693-7.343,7.178-8.724,10.38-11.429,12.478-11.153,2.264.276,3.534,2.65,3.7,13.583q-1.9-.58-4.141-1.16c-.11-1.6-.442-3.975-.552-4.8-.11-.939-.331-1.27-.663-1.325-.442-.055-1.491.939-2.429,1.932-.442.442-1.656,1.656-2.982,3.037a2.46,2.46,0,0,0-2.264.718,2.183,2.183,0,0,0-.221,1.822l-1.767,1.767c-1.491,1.491-3.092,2.706-3.147,3.313-.055.5.663.994,1.767,1.656C264.3,37.5,270.761,41.038,273.08,42.253Zm10.049-10.932a78.58,78.58,0,0,0-15.35-4.086c-2.264-.276-3.147.5-2.264,2.65a36.03,36.03,0,0,0,5.8,8.393c2.485,2.65,5.19,3.368,6.074-.718.055-.166.055-.276.11-.442a21.669,21.669,0,0,0,.442-2.982c-1.1-.5-2.374-1.049-3.589-1.546.055.939.166,2.6.221,3.81v.442c.055,2.043-.607,2.043-1.767,1.215-1.325-.939-5.466-6.4-5.963-8.834,0-.166.055-.166.11-.11.055,0,.055,0,.11.055h0c.939.387,4.031,1.6,7.178,2.926,1.27.552,2.54,1.049,3.644,1.6,1.1.5,2.1.994,2.871,1.38,1.38.718,1.877,1.215,1.325,1.822-2.816,2.871-12.754,6.957-16.178,12.037l-.055.055c-.055.055-.055.11-.11.166a.054.054,0,0,1-.055.055,5.163,5.163,0,0,0-.5,1.491c-.166,1.1.442,2.1,2.043,2.54a7.967,7.967,0,0,0,1.325.276h.276c3.037.166,10.988-1.6,13.362-2.65,2.485-1.1,1.767-2.209,1.049-2.761-.552-.442-3.313-1.988-4.638-2.705a6.224,6.224,0,0,0-.994.663c2.264,1.38,3.2,2.1,3.755,2.485.221.166.11.331-.221.386h-.221c-2.153.166-6.294.442-8.227.552-.276,0-.607.055-.773.055.5-.442.994-.828,1.27-1.049,4.141-2.926,11.043-7.012,13.086-8.779C287.822,38.333,291.908,34.358,283.129,31.321Z" transform="translate(-101.563 0)" fill="#fff"/>
  </g>
</svg>
