<svg xmlns="http://www.w3.org/2000/svg" width="56.702" height="68.754" viewBox="0 0 56.702 68.754">
  <g id="astrazeneca-seeklogo.com" transform="translate(-133.274 -37.566)">
    <path id="Path_1713" data-name="Path 1713" d="M285.9,63.9l-1.8,1.2c-7-3.9-22-11.4-23.3-12-1.4-.7-3.8-1.7-3.5-4,.4-3.2,6.1-10.3,8.5-13.3,13-15.8,18.8-20.7,22.6-20.2,4.1.5,6.4,4.8,6.7,24.6q-3.45-1.05-7.5-2.1c-.2-2.9-.8-7.2-1-8.7-.2-1.7-.6-2.3-1.2-2.4-.8-.1-2.7,1.7-4.4,3.5-.8.8-3,3-5.4,5.5-2-.1-3.4.3-4.1,1.3a3.953,3.953,0,0,0-.4,3.3l-3.2,3.2c-2.7,2.7-5.6,4.9-5.7,6-.1.9,1.2,1.8,3.2,3C270,55.3,281.7,61.7,285.9,63.9Zm18.2-19.8c-4.6-1.6-15.9-5.8-27.8-7.4-4.1-.5-5.7.9-4.1,4.8,1.7,3.9,6,10.3,10.5,15.2,4.5,4.8,9.4,6.1,11-1.3.1-.3.1-.5.2-.8a39.252,39.252,0,0,0,.8-5.4c-2-.9-4.3-1.9-6.5-2.8.1,1.7.3,4.7.4,6.9v.8c.1,3.7-1.1,3.7-3.2,2.2-2.4-1.7-9.9-11.6-10.8-16,0-.3.1-.3.2-.2.1,0,.1,0,.2.1h0c1.7.7,7.3,2.9,13,5.3,2.3,1,4.6,1.9,6.6,2.9,2,.9,3.8,1.8,5.2,2.5,2.5,1.3,3.4,2.2,2.4,3.3-5.1,5.2-23.1,12.6-29.3,21.8l-.1.1c-.1.1-.1.2-.2.3a.1.1,0,0,1-.1.1,9.352,9.352,0,0,0-.9,2.7c-.3,2,.8,3.8,3.7,4.6a14.43,14.43,0,0,0,2.4.5h.5c5.5.3,19.9-2.9,24.2-4.8,4.5-2,3.2-4,1.9-5-1-.8-6-3.6-8.4-4.9a11.273,11.273,0,0,0-1.8,1.2c4.1,2.5,5.8,3.8,6.8,4.5.4.3.2.6-.4.7h-.4c-3.9.3-11.4.8-14.9,1-.5,0-1.1.1-1.4.1.9-.8,1.8-1.5,2.3-1.9,7.5-5.3,20-12.7,23.7-15.9C312.6,56.8,320,49.6,304.1,44.1Z" transform="translate(-124 22)" fill="#fcaf17"/>
  </g>
</svg>
