<svg xmlns="http://www.w3.org/2000/svg" xmlns:xlink="http://www.w3.org/1999/xlink" width="1254" height="1001" viewBox="0 0 1254 1001">
  <defs>
    <clipPath id="clip-path">
      <rect id="Rectangle_40" data-name="Rectangle 40" width="1254" height="1001" transform="translate(1254.434 1001) rotate(180)" fill="none"/>
    </clipPath>
  </defs>
  <g id="Group_85" data-name="Group 85" transform="translate(-0.434)" opacity="0.424" clip-path="url(#clip-path)">
    <g id="Group_84" data-name="Group 84" transform="translate(-78.44 -181.084)">
      <g id="Group_82" data-name="Group 82" transform="translate(0 634.721)">
        <path id="Path_1700" data-name="Path 1700" d="M108.79,308.582a1.66,1.66,0,0,0-2.157,1.3L105.8,312.9l-2.425-.961a15.148,15.148,0,0,0,.2-2.481A14.045,14.045,0,0,0,99.174,299l1.171-2.441,1.388.94a1.125,1.125,0,0,0,1.672-.54,1.635,1.635,0,0,0-.452-2l-5.1-3.482a1.125,1.125,0,0,0-1.672.54,1.635,1.635,0,0,0,.452,2l1.388.94-1.154,2.421a9.293,9.293,0,0,0-4.231-1.021,9.806,9.806,0,0,0-6.488,2.561l-2.157-2.581,2.575-3.082a2.058,2.058,0,0,0,0-2.541,1.336,1.336,0,0,0-2.124,0l-7.475,8.944a2.058,2.058,0,0,0,0,2.541,1.336,1.336,0,0,0,2.124,0l2.575-3.082,2.157,2.581a14.807,14.807,0,0,0-2.141,7.764,17.122,17.122,0,0,0,.15,2.081l-1.706.52-.284-1.361a.909.909,0,0,0-1.1-.78,1.119,1.119,0,0,0-.652,1.321l1.07,5a.909.909,0,0,0,1.1.78,1.119,1.119,0,0,0,.652-1.321l-.284-1.361,1.706-.52a12.9,12.9,0,0,0,4.448,6.683l-1.238,3.182-1.321-.74a1.221,1.221,0,0,0-1.722.74,1.7,1.7,0,0,0,.619,2.061l5.2,2.9a1.221,1.221,0,0,0,1.722-.74,1.7,1.7,0,0,0-.619-2.061l-1.321-.74,1.237-3.162a9.194,9.194,0,0,0,3.311.62,9.437,9.437,0,0,0,5.034-1.481l.886,1.821-.552.38a.655.655,0,0,0-.184.8.451.451,0,0,0,.669.22l2.023-1.4a.655.655,0,0,0,.184-.8.452.452,0,0,0-.669-.22l-.552.38-.886-1.821s.117-.08.167-.12a12.037,12.037,0,0,0,1.622-1.6,13.313,13.313,0,0,0,1.338-1.941,12.132,12.132,0,0,0,.753-1.6l2.425.961-.836,3.021a2.149,2.149,0,0,0,1.087,2.581,1.66,1.66,0,0,0,2.157-1.3l2.592-9.265a2.149,2.149,0,0,0-1.087-2.581Zm-20.653,7.163a3.05,3.05,0,1,1,2.508-3A2.785,2.785,0,0,1,88.137,315.745ZM90.846,305.3a2.481,2.481,0,1,1,2.04-2.441A2.277,2.277,0,0,1,90.846,305.3Zm6.689,10.265c-2.007,0-3.646-1.941-3.646-4.362s1.622-4.362,3.646-4.362,3.646,1.941,3.646,4.362S99.559,315.565,97.536,315.565Z" transform="translate(129.892 -163.165)" fill="#e0f3ff"/>
        <path id="Path_1701" data-name="Path 1701" d="M104.25,245.1a1.66,1.66,0,0,0-2.157,1.3l-.836,3.021-2.425-.96a15.15,15.15,0,0,0,.2-2.481,14.044,14.044,0,0,0-4.4-10.465l1.154-2.441,1.388.94a1.125,1.125,0,0,0,1.672-.54,1.635,1.635,0,0,0-.452-2l-5.1-3.482a1.125,1.125,0,0,0-1.672.54,1.635,1.635,0,0,0,.452,2l1.388.94L92.31,233.9a9.293,9.293,0,0,0-4.231-1.02,9.731,9.731,0,0,0-6.472,2.561l-2.157-2.581,2.575-3.082a2.058,2.058,0,0,0,0-2.541,1.336,1.336,0,0,0-2.124,0l-7.475,8.944a2.058,2.058,0,0,0,0,2.541,1.336,1.336,0,0,0,2.124,0l2.575-3.081,2.157,2.581a14.807,14.807,0,0,0-2.141,7.764,17.123,17.123,0,0,0,.15,2.081l-1.706.52-.284-1.361a.909.909,0,0,0-1.1-.78,1.119,1.119,0,0,0-.652,1.321l1.07,5a.909.909,0,0,0,1.1.78,1.119,1.119,0,0,0,.652-1.321l-.284-1.361,1.706-.52a12.9,12.9,0,0,0,4.448,6.683l-1.237,3.182-1.321-.74a1.221,1.221,0,0,0-1.722.74,1.7,1.7,0,0,0,.619,2.061l5.2,2.9a1.221,1.221,0,0,0,1.722-.74,1.7,1.7,0,0,0-.619-2.061l-1.321-.74,1.237-3.162a9.194,9.194,0,0,0,3.311.62,9.481,9.481,0,0,0,5.034-1.481l.886,1.821-.552.38a.655.655,0,0,0-.184.8.452.452,0,0,0,.669.22l2.023-1.4a.655.655,0,0,0,.184-.8.452.452,0,0,0-.669-.22l-.552.38-.886-1.821s.117-.08.167-.12a12.032,12.032,0,0,0,1.622-1.6,13.314,13.314,0,0,0,1.338-1.941,12.133,12.133,0,0,0,.753-1.6l2.425.96-.836,3.021a2.149,2.149,0,0,0,1.087,2.581,1.66,1.66,0,0,0,2.157-1.3l2.592-9.265a2.149,2.149,0,0,0-1.087-2.581ZM83.6,252.265a3.05,3.05,0,1,1,2.508-3A2.785,2.785,0,0,1,83.6,252.265Zm2.709-10.445a2.481,2.481,0,1,1,2.04-2.441A2.277,2.277,0,0,1,86.306,241.82ZM93,252.085c-2.007,0-3.646-1.941-3.646-4.362s1.622-4.362,3.646-4.362,3.646,1.941,3.646,4.362S95.019,252.085,93,252.085Z" transform="translate(126.84 -226.708)" fill="#e0f3ff"/>
        <path id="Path_1702" data-name="Path 1702" d="M100.79,299.2c-3.328-1.341-6.94.82-8.06,4.822L89.6,315.244l-9.014-3.6a57.921,57.921,0,0,0,.753-9.265c0-16.008-6.455-30.155-16.388-39.059l4.331-9.084,5.167,3.542c2.191,1.5,5,.58,6.254-2.041A6.115,6.115,0,0,0,79,248.251L59.969,235.225c-2.191-1.5-5-.58-6.254,2.041a6.115,6.115,0,0,0,1.706,7.484l5.167,3.542-4.315,9.024a35.1,35.1,0,0,0-15.753-3.782,36.423,36.423,0,0,0-24.165,9.545L8.3,253.434l9.6-11.486a7.694,7.694,0,0,0,0-9.5,5,5,0,0,0-7.943,0l-27.86,33.336a7.694,7.694,0,0,0,0,9.5,5,5,0,0,0,7.943,0l9.6-11.486,8.06,9.645A55.079,55.079,0,0,0-.284,302.358a56.56,56.56,0,0,0,.569,7.764l-6.355,1.941-1.087-5.083c-.452-2.161-2.291-3.462-4.1-2.9a4.134,4.134,0,0,0-2.425,4.9L-9.7,327.65c.468,2.161,2.291,3.462,4.1,2.9,1.806-.54,2.893-2.741,2.425-4.9l-1.087-5.083,6.338-1.941a48.382,48.382,0,0,0,16.572,24.912l-4.616,11.846L9.1,352.622c-2.408-1.341-5.284-.1-6.4,2.781s-.084,6.323,2.324,7.664l19.4,10.825c2.408,1.341,5.284.1,6.4-2.781s.084-6.323-2.324-7.664l-4.933-2.761,4.6-11.806a34.646,34.646,0,0,0,12.358,2.281,35.377,35.377,0,0,0,18.746-5.483l3.294,6.763L60.5,353.863a2.437,2.437,0,0,0-.669,2.981,1.657,1.657,0,0,0,2.492.78l7.542-5.243a2.411,2.411,0,0,0,.652-2.981,1.676,1.676,0,0,0-2.492-.8l-2.057,1.421-3.294-6.763c.2-.16.418-.3.635-.46a43.877,43.877,0,0,0,6.037-5.963,48.523,48.523,0,0,0,4.983-7.224,52.707,52.707,0,0,0,2.809-5.943l9.03,3.6L83.047,338.5c-1.12,4,.686,8.3,4.03,9.645,3.328,1.341,6.94-.82,8.06-4.822l9.649-34.6c1.12-4-.686-8.3-4.03-9.645ZM23.781,325.949c-5.151,0-9.331-5-9.331-11.165s4.181-11.165,9.331-11.165,9.331,5,9.331,11.165S28.931,325.949,23.781,325.949ZM33.865,286.97c-4.2,0-7.592-4.062-7.592-9.084s3.395-9.084,7.592-9.084,7.592,4.062,7.592,9.084-3.395,9.084-7.592,9.084ZM58.8,325.289c-7.492,0-13.579-7.264-13.579-16.248s6.07-16.248,13.579-16.248,13.579,7.264,13.579,16.248-6.07,16.248-13.579,16.248Z" transform="translate(65.298 -222.934)" fill="#e0f3ff"/>
        <path id="Path_1703" data-name="Path 1703" d="M192.627,481.155c-6.639-2.661-13.813,1.641-16.037,9.585l-6.238,22.371-17.944-7.164a116.926,116.926,0,0,0,1.505-18.429c0-31.856-12.86-60.029-32.643-77.758l8.629-18.069,10.3,7.043c4.365,2.981,9.95,1.181,12.442-4.062,2.508-5.223.987-11.906-3.395-14.887l-37.894-25.913c-4.365-2.981-9.95-1.181-12.442,4.062-2.492,5.223-.987,11.906,3.395,14.887l10.3,7.043-8.579,17.969a69.617,69.617,0,0,0-31.372-7.524c-18.027,0-34.633,7.123-48.112,19.009L8.508,390.13l19.114-22.851a15.29,15.29,0,0,0,0-18.909c-4.365-5.223-11.438-5.223-15.8,0l-55.453,66.353a15.29,15.29,0,0,0,0,18.909c4.365,5.223,11.438,5.223,15.8,0L-8.717,410.76,7.321,429.949A109.8,109.8,0,0,0-8.566,487.518a117.179,117.179,0,0,0,1.12,15.448l-12.643,3.862-2.157-10.1c-.92-4.282-4.565-6.883-8.144-5.783s-5.753,5.463-4.833,9.745l7.927,37.138c.92,4.282,4.565,6.883,8.144,5.783s5.736-5.463,4.833-9.745l-2.157-10.1,12.626-3.862c6.1,20.61,17.81,38,32.978,49.564l-9.2,23.552-9.816-5.483c-4.8-2.681-10.519-.2-12.76,5.543s-.167,12.586,4.632,15.267l38.6,21.571c4.8,2.681,10.519.2,12.76-5.543s.167-12.586-4.632-15.267l-9.8-5.483,9.164-23.492a69.165,69.165,0,0,0,24.6,4.562A70.366,70.366,0,0,0,110,573.76l6.539,13.466-4.08,2.841a4.842,4.842,0,0,0-1.321,5.943,3.328,3.328,0,0,0,4.967,1.581l15.017-10.445a4.816,4.816,0,0,0,1.3-5.943,3.328,3.328,0,0,0-4.967-1.581l-4.08,2.841L116.839,569c.4-.32.853-.58,1.254-.9a87.689,87.689,0,0,0,12.024-11.866,95.763,95.763,0,0,0,9.917-14.387,105.77,105.77,0,0,0,5.6-11.806l17.994,7.184-6.238,22.371c-2.207,7.944,1.371,16.528,8.01,19.189s13.813-1.641,16.037-9.585l19.2-68.854c2.207-7.944-1.371-16.548-8.01-19.189Zm-153.3,53.266c-10.251,0-18.579-9.945-18.579-22.231s8.311-22.211,18.579-22.211,18.579,9.945,18.579,22.211S49.6,534.421,39.328,534.421Zm20.084-77.6c-8.361,0-15.134-8.1-15.134-18.109S51.051,420.6,59.413,420.6s15.134,8.1,15.134,18.109S67.774,456.823,59.413,456.823ZM109.046,533.1c-14.917,0-27.007-14.467-27.007-32.316s12.091-32.316,27.007-32.316,27.007,14.467,27.007,32.316S123.963,533.1,109.046,533.1Z" transform="translate(46.908 -108.847)" fill="#e0f3ff"/>
      </g>
      <path id="Path_1704" data-name="Path 1704" d="M352.7,46.225c-6.639-2.641-13.813,1.641-16.037,9.585L330.429,78.18l-17.944-7.164a116.926,116.926,0,0,0,1.505-18.429c0-31.856-12.86-60.029-32.643-77.758l8.629-18.069,10.3,7.043c4.365,2.981,9.95,1.181,12.442-4.062,2.508-5.223.987-11.906-3.395-14.887L271.431-81.058c-4.365-2.981-9.95-1.181-12.442,4.062C256.5-71.773,258-65.09,262.384-62.109l10.3,7.043L264.106-37.1a69.617,69.617,0,0,0-31.372-7.524c-18.027,0-34.633,7.123-48.112,19.009L168.585-44.8l19.1-22.871a15.29,15.29,0,0,0,0-18.909c-4.365-5.223-11.438-5.223-15.8,0L116.426-20.228a15.29,15.29,0,0,0,0,18.909c4.365,5.223,11.438,5.223,15.8,0L151.343-24.19,167.381-5a109.8,109.8,0,0,0-15.887,57.568,117.181,117.181,0,0,0,1.12,15.448l-12.642,3.862-2.157-10.1c-.92-4.282-4.565-6.883-8.144-5.783s-5.753,5.463-4.833,9.745l7.927,37.138c.92,4.282,4.565,6.883,8.144,5.783s5.736-5.463,4.833-9.745l-2.157-10.1,12.626-3.862c6.1,20.61,17.81,38,32.978,49.564l-9.2,23.552-9.816-5.483c-4.8-2.681-10.519-.2-12.76,5.543s-.167,12.586,4.632,15.267l38.6,21.571c4.8,2.681,10.519.2,12.76-5.543s.167-12.586-4.632-15.267l-9.8-5.483,9.164-23.492a69.143,69.143,0,0,0,24.583,4.562,70.365,70.365,0,0,0,37.326-10.925l6.539,13.467-4.08,2.841a4.842,4.842,0,0,0-1.321,5.943,3.328,3.328,0,0,0,4.967,1.581L291.164,152.2a4.816,4.816,0,0,0,1.3-5.943,3.328,3.328,0,0,0-4.967-1.581l-4.08,2.841-6.539-13.467c.4-.32.853-.58,1.254-.9a87.683,87.683,0,0,0,12.024-11.866,95.769,95.769,0,0,0,9.917-14.387,105.776,105.776,0,0,0,5.6-11.806l17.994,7.184-6.238,22.371c-2.207,7.944,1.371,16.528,8.01,19.189,6.639,2.641,13.813-1.641,16.037-9.585l19.2-68.854c2.207-7.944-1.371-16.548-8.01-19.189Zm-153.3,53.266c-10.251,0-18.579-9.945-18.579-22.231s8.311-22.231,18.579-22.231,18.579,9.945,18.579,22.231S209.673,99.491,199.405,99.491Zm20.084-77.6c-8.361,0-15.117-8.1-15.117-18.109s6.773-18.109,15.117-18.109,15.118,8.1,15.118,18.109S227.834,21.893,219.489,21.893ZM269.123,98.17c-14.917,0-27.007-14.467-27.007-32.316s12.091-32.316,27.007-32.316S296.13,48.005,296.13,65.854,284.04,98.17,269.123,98.17Z" transform="translate(154.514 90.498)" fill="#e0f3ff"/>
      <g id="Group_83" data-name="Group 83" transform="translate(1162.867 634.721)">
        <path id="Path_1705" data-name="Path 1705" d="M653.549,311.183l2.592,9.265a1.686,1.686,0,0,0,2.157,1.3,2.185,2.185,0,0,0,1.087-2.581l-.836-3.021,2.425-.961a13.457,13.457,0,0,0,.753,1.6,13.307,13.307,0,0,0,1.338,1.941,12.035,12.035,0,0,0,1.622,1.6c.05.04.117.08.167.12l-.886,1.821-.552-.38a.452.452,0,0,0-.669.22.655.655,0,0,0,.184.8l2.023,1.4a.452.452,0,0,0,.669-.22.655.655,0,0,0-.184-.8l-.552-.38.886-1.821a9.437,9.437,0,0,0,5.034,1.481,9.193,9.193,0,0,0,3.311-.62l1.237,3.162-1.321.74a1.685,1.685,0,0,0-.619,2.061,1.208,1.208,0,0,0,1.723.74l5.2-2.9a1.685,1.685,0,0,0,.619-2.061,1.208,1.208,0,0,0-1.723-.74l-1.321.74-1.237-3.182a13.1,13.1,0,0,0,4.448-6.683l1.706.52-.284,1.361a1.13,1.13,0,0,0,.652,1.321.916.916,0,0,0,1.1-.78l1.07-5a1.13,1.13,0,0,0-.652-1.321.916.916,0,0,0-1.1.78l-.284,1.361-1.706-.52a17.119,17.119,0,0,0,.151-2.081,14.859,14.859,0,0,0-2.141-7.764l2.157-2.581,2.575,3.082a1.336,1.336,0,0,0,2.124,0,2.059,2.059,0,0,0,0-2.541l-7.475-8.944a1.336,1.336,0,0,0-2.124,0,2.059,2.059,0,0,0,0,2.541l2.575,3.082-2.157,2.581a9.773,9.773,0,0,0-6.489-2.561,9.292,9.292,0,0,0-4.231,1.021l-1.154-2.421,1.388-.94a1.636,1.636,0,0,0,.452-2,1.125,1.125,0,0,0-1.672-.54l-5.1,3.482a1.635,1.635,0,0,0-.451,2,1.125,1.125,0,0,0,1.672.54l1.388-.94L664.285,299a14.044,14.044,0,0,0-4.4,10.465,15.14,15.14,0,0,0,.2,2.481l-2.425.961-.836-3.021a1.686,1.686,0,0,0-2.157-1.3,2.185,2.185,0,0,0-1.087,2.581Zm19.231,1.6a2.549,2.549,0,1,1,2.508,3A2.785,2.785,0,0,1,672.781,312.784Zm-2.241-9.9a2.073,2.073,0,1,1,2.04,2.441A2.277,2.277,0,0,1,670.54,302.879Zm-8.278,8.364c0-2.4,1.622-4.362,3.646-4.362s3.646,1.941,3.646,4.362-1.622,4.362-3.646,4.362S662.262,313.664,662.262,311.243Z" transform="translate(-645.081 -163.165)" fill="#e0f3ff"/>
        <path id="Path_1706" data-name="Path 1706" d="M658.089,247.7l2.592,9.265a1.686,1.686,0,0,0,2.157,1.3,2.185,2.185,0,0,0,1.087-2.581l-.836-3.021,2.425-.96a13.474,13.474,0,0,0,.753,1.6,13.315,13.315,0,0,0,1.338,1.941,12.033,12.033,0,0,0,1.622,1.6c.05.04.117.08.167.12l-.886,1.821-.552-.38a.452.452,0,0,0-.669.22.655.655,0,0,0,.184.8l2.023,1.4a.452.452,0,0,0,.669-.22.655.655,0,0,0-.184-.8l-.552-.38.886-1.821a9.437,9.437,0,0,0,5.034,1.481,9.194,9.194,0,0,0,3.311-.62l1.237,3.162-1.321.74a1.685,1.685,0,0,0-.619,2.061,1.208,1.208,0,0,0,1.723.74l5.2-2.9a1.685,1.685,0,0,0,.619-2.061,1.208,1.208,0,0,0-1.722-.74l-1.321.74-1.237-3.182a13.1,13.1,0,0,0,4.448-6.683l1.706.52-.284,1.361a1.13,1.13,0,0,0,.652,1.321.916.916,0,0,0,1.1-.78l1.07-5a1.13,1.13,0,0,0-.652-1.321.916.916,0,0,0-1.1.78l-.284,1.361-1.706-.52a17.119,17.119,0,0,0,.151-2.081,14.861,14.861,0,0,0-2.141-7.764l2.157-2.581,2.575,3.081a1.336,1.336,0,0,0,2.124,0,2.058,2.058,0,0,0,0-2.541l-7.475-8.944a1.336,1.336,0,0,0-2.124,0,2.058,2.058,0,0,0,0,2.541l2.575,3.082-2.157,2.581a9.763,9.763,0,0,0-6.472-2.561,9.293,9.293,0,0,0-4.231,1.02L670,231.475l1.388-.94a1.636,1.636,0,0,0,.452-2,1.125,1.125,0,0,0-1.672-.54l-5.1,3.482a1.636,1.636,0,0,0-.452,2,1.125,1.125,0,0,0,1.672.54l1.388-.94,1.154,2.441a14.044,14.044,0,0,0-4.4,10.465,15.142,15.142,0,0,0,.2,2.481l-2.425.96-.836-3.021a1.686,1.686,0,0,0-2.157-1.3,2.185,2.185,0,0,0-1.087,2.581Zm19.231,1.6a2.549,2.549,0,1,1,2.508,3A2.785,2.785,0,0,1,677.32,249.3Zm-2.241-9.9a2.073,2.073,0,1,1,2.04,2.441A2.277,2.277,0,0,1,675.08,239.4Zm-8.278,8.364c0-2.4,1.622-4.362,3.646-4.362s3.646,1.941,3.646,4.362-1.622,4.362-3.646,4.362S666.8,250.184,666.8,247.763Z" transform="translate(-642.029 -226.708)" fill="#e0f3ff"/>
        <path id="Path_1707" data-name="Path 1707" d="M695.324,308.781l9.649,34.6c1.12,4,4.716,6.143,8.06,4.822,3.345-1.341,5.134-5.643,4.03-9.645l-3.127-11.225,9.03-3.6a52.715,52.715,0,0,0,2.809,5.943,48.522,48.522,0,0,0,4.983,7.224,43.872,43.872,0,0,0,6.037,5.963c.2.16.418.3.635.46l-3.294,6.763-2.057-1.421a1.664,1.664,0,0,0-2.492.8,2.433,2.433,0,0,0,.652,2.981l7.542,5.243a1.669,1.669,0,0,0,2.492-.78,2.416,2.416,0,0,0-.669-2.981L737.55,352.5l3.294-6.763a35.42,35.42,0,0,0,18.746,5.483,34.647,34.647,0,0,0,12.358-2.281l4.6,11.806-4.933,2.761c-2.408,1.341-3.462,4.782-2.325,7.664,1.12,2.881,4,4.142,6.4,2.781l19.4-10.825c2.408-1.341,3.462-4.782,2.325-7.664-1.12-2.881-4-4.142-6.4-2.781l-4.933,2.761L781.464,343.6c7.626-5.8,13.5-14.547,16.572-24.912l6.338,1.941-1.087,5.082a4.151,4.151,0,0,0,2.425,4.9c1.806.56,3.629-.76,4.1-2.9l3.98-18.669a4.168,4.168,0,0,0-2.425-4.9c-1.806-.54-3.629.76-4.1,2.9l-1.087,5.082-6.355-1.941a59.317,59.317,0,0,0,.569-7.764,55.126,55.126,0,0,0-7.977-28.914l8.06-9.645,9.6,11.486a5,5,0,0,0,7.943,0,7.694,7.694,0,0,0,0-9.5L790.16,232.5a5,5,0,0,0-7.943,0,7.7,7.7,0,0,0,0,9.5l9.6,11.486-8.06,9.645a36.357,36.357,0,0,0-24.165-9.545,34.844,34.844,0,0,0-15.753,3.782l-4.314-9.024,5.167-3.542a6.109,6.109,0,0,0,1.706-7.484c-1.254-2.621-4.047-3.542-6.254-2.041l-19.031,13.026a6.109,6.109,0,0,0-1.706,7.484c1.254,2.621,4.047,3.542,6.254,2.041l5.167-3.542,4.331,9.084c-9.933,8.9-16.388,23.071-16.388,39.059a58.11,58.11,0,0,0,.753,9.265l-9.014,3.6-3.127-11.225c-1.12-4-4.716-6.143-8.06-4.822-3.345,1.341-5.134,5.643-4.03,9.645Zm71.708,5.943c0-6.163,4.181-11.165,9.331-11.165s9.331,5,9.331,11.165-4.181,11.165-9.331,11.165S767.032,320.887,767.032,314.724Zm-8.362-36.9c0-5.023,3.395-9.084,7.592-9.084s7.592,4.062,7.592,9.084-3.395,9.084-7.592,9.084S758.671,282.848,758.671,277.826ZM727.767,309c0-8.964,6.07-16.248,13.579-16.248s13.579,7.264,13.579,16.248-6.07,16.248-13.579,16.248S727.767,317.985,727.767,309Z" transform="translate(-617.206 -222.874)" fill="#e0f3ff"/>
        <path id="Path_1708" data-name="Path 1708" d="M649.158,500.344l19.2,68.854c2.207,7.944,9.4,12.246,16.037,9.585s10.234-11.245,8.01-19.189l-6.238-22.371,17.994-7.184a105.783,105.783,0,0,0,5.6,11.806,97.009,97.009,0,0,0,9.917,14.387A85.646,85.646,0,0,0,731.7,568.1c.4.32.836.6,1.254.9l-6.539,13.467-4.081-2.841c-1.739-1.2-3.946-.5-4.967,1.581a4.859,4.859,0,0,0,1.3,5.943l15.017,10.445c1.739,1.2,3.947.5,4.967-1.581a4.848,4.848,0,0,0-1.321-5.943l-4.081-2.841L739.8,573.76a70.409,70.409,0,0,0,37.326,10.925,69.075,69.075,0,0,0,24.583-4.562l9.164,23.492-9.8,5.483c-4.8,2.681-6.873,9.5-4.632,15.267,2.241,5.743,7.96,8.224,12.76,5.543l38.6-21.571c4.8-2.681,6.873-9.525,4.632-15.268s-7.96-8.224-12.76-5.543l-9.816,5.483-9.2-23.552c15.168-11.566,26.874-28.954,32.978-49.564l12.626,3.862-2.157,10.1c-.92,4.282,1.254,8.644,4.833,9.745s7.224-1.5,8.144-5.783L885,500.684c.92-4.282-1.254-8.644-4.833-9.745s-7.224,1.5-8.144,5.783l-2.157,10.1-12.643-3.862a117.174,117.174,0,0,0,1.12-15.448,109.649,109.649,0,0,0-15.887-57.568L858.5,410.76l19.114,22.871c4.365,5.223,11.438,5.223,15.8,0a15.29,15.29,0,0,0,0-18.909L837.96,348.369c-4.365-5.223-11.438-5.223-15.8,0a15.29,15.29,0,0,0,0,18.909l19.1,22.851-16.037,19.189c-13.479-11.886-30.084-19.009-48.112-19.009a69.617,69.617,0,0,0-31.372,7.524l-8.579-17.969,10.3-7.043c4.365-3,5.887-9.665,3.395-14.887-2.508-5.243-8.077-7.043-12.442-4.062l-37.894,25.913c-4.365,2.981-5.887,9.665-3.395,14.887s8.077,7.043,12.442,4.062l10.3-7.043,8.629,18.069c-19.783,17.729-32.643,45.923-32.643,77.758a116.914,116.914,0,0,0,1.505,18.429L679.41,513.11l-6.238-22.371c-2.207-7.944-9.4-12.246-16.037-9.585-6.639,2.641-10.234,11.246-8.01,19.189Zm142.73,11.846c0-12.266,8.311-22.211,18.579-22.211s18.579,9.945,18.579,22.211-8.311,22.231-18.579,22.231S791.888,524.476,791.888,512.19Zm-16.639-73.476c0-10,6.773-18.109,15.117-18.109s15.117,8.1,15.117,18.109-6.773,18.109-15.117,18.109S775.249,448.719,775.249,438.714Zm-61.524,62.05c0-17.849,12.091-32.316,27.008-32.316s27.008,14.467,27.008,32.316S755.65,533.08,740.733,533.08,713.725,518.613,713.725,500.764Z" transform="translate(-648.466 -108.847)" fill="#e0f3ff"/>
      </g>
      <path id="Path_1709" data-name="Path 1709" d="M489.088,65.4l19.2,68.854c2.207,7.944,9.4,12.246,16.037,9.585s10.234-11.245,8.01-19.189L526.1,102.282,544.09,95.1a105.8,105.8,0,0,0,5.6,11.806,97.009,97.009,0,0,0,9.917,14.387,85.651,85.651,0,0,0,12.024,11.866c.4.32.836.6,1.254.9l-6.539,13.467-4.08-2.841c-1.739-1.2-3.947-.5-4.967,1.581a4.859,4.859,0,0,0,1.3,5.943l15.017,10.445c1.739,1.2,3.947.5,4.967-1.581a4.848,4.848,0,0,0-1.321-5.943l-4.08-2.841,6.539-13.467a70.41,70.41,0,0,0,37.326,10.925,69.075,69.075,0,0,0,24.583-4.562l9.164,23.492-9.8,5.483c-4.8,2.681-6.873,9.5-4.632,15.267,2.241,5.743,7.96,8.224,12.76,5.543l38.6-21.571c4.8-2.681,6.873-9.525,4.632-15.267s-7.96-8.224-12.76-5.543l-9.816,5.483-9.2-23.552c15.168-11.566,26.874-28.954,32.978-49.564l12.626,3.862-2.157,10.1c-.92,4.282,1.254,8.644,4.833,9.745s7.224-1.5,8.144-5.783l7.927-37.138c.92-4.282-1.254-8.644-4.833-9.745s-7.224,1.5-8.144,5.783l-2.157,10.1-12.642-3.862a117.184,117.184,0,0,0,1.12-15.448A109.648,109.648,0,0,0,682.388-4.991L698.426-24.18,717.54-1.309c4.365,5.223,11.438,5.223,15.8,0a15.29,15.29,0,0,0,0-18.909L677.89-86.571c-4.365-5.223-11.439-5.223-15.8,0a15.29,15.29,0,0,0,0,18.909l19.1,22.871L665.147-25.6C651.668-37.486,635.062-44.61,617.035-44.61a69.617,69.617,0,0,0-31.372,7.524l-8.579-17.969,10.3-7.043c4.365-3,5.887-9.665,3.395-14.887-2.508-5.243-8.077-7.043-12.442-4.062L540.444-55.135c-4.365,2.981-5.887,9.665-3.395,14.887s8.077,7.043,12.442,4.062l10.3-7.043,8.629,18.069C548.638-7.432,535.778,20.762,535.778,52.6a116.922,116.922,0,0,0,1.505,18.429L519.34,78.19,513.1,55.819c-2.208-7.944-9.4-12.246-16.037-9.585-6.639,2.641-10.234,11.246-8.01,19.189ZM631.818,77.25c0-12.266,8.311-22.231,18.579-22.231s18.579,9.945,18.579,22.231S660.665,99.481,650.4,99.481,631.818,89.536,631.818,77.25ZM615.179,3.774c0-10,6.773-18.109,15.117-18.109s15.118,8.1,15.118,18.109S638.641,21.883,630.3,21.883,615.179,13.779,615.179,3.774Zm-61.524,62.05c0-17.849,12.091-32.316,27.008-32.316S607.67,47.975,607.67,65.824,595.58,98.14,580.663,98.14,553.655,83.673,553.655,65.824Z" transform="translate(406.787 90.507)" fill="#e0f3ff"/>
    </g>
  </g>
</svg>
