<svg xmlns="http://www.w3.org/2000/svg" xmlns:xlink="http://www.w3.org/1999/xlink" width="91" height="91" viewBox="0 0 91 91">
  <defs>
    <linearGradient id="linear-gradient" x1="0.5" x2="0.5" y2="1" gradientUnits="objectBoundingBox">
      <stop offset="0" stop-color="#e55f5f"/>
      <stop offset="1" stop-color="#951f1f"/>
    </linearGradient>
  </defs>
  <g id="Group_1340" data-name="Group 1340" transform="translate(1460 -14608)">
    <circle id="Ellipse_454" data-name="Ellipse 454" cx="45.5" cy="45.5" r="45.5" transform="translate(-1460 14608)" fill="#7e4f9b"/>
    <circle id="Ellipse_453" data-name="Ellipse 453" cx="41.5" cy="41.5" r="41.5" transform="translate(-1456 14612)" fill="#fdffea"/>
    <g id="kidney-svgrepo-com_1_" data-name="kidney-svgrepo-com (1)" transform="translate(-1510.951 14626.499)">
      <g id="Group_1339" data-name="Group 1339" transform="translate(78.058 0)">
        <g id="Group_1338" data-name="Group 1338" transform="translate(0 0)">
          <path id="Path_5149" data-name="Path 5149" d="M99.835,33.116a11.462,11.462,0,0,1,3.683-12.781c8.458-3.827,7.929-10.553,6.473-14.027C108.8,3.485,105.018-1.919,96.968.695a27.115,27.115,0,0,0-14.92,11.623c-3.65,5.789-8.193,25.727,3.65,35.211,3.474,2.79,14.248,6.109,18.7-1.367C106.264,41.519,100.651,35.343,99.835,33.116Z" transform="translate(-78.058 0)" fill="url(#linear-gradient)"/>
          <path id="Path_5150" data-name="Path 5150" d="M294.081,232.3h-3.9a9.591,9.591,0,0,0-.772,4.378h4.632a4.45,4.45,0,0,1,4.455,4.455v19.552h4.378v-19.6A8.791,8.791,0,0,0,294.081,232.3Z" transform="translate(-266.084 -206.681)" fill="url(#linear-gradient)"/>
          <path id="Path_5151" data-name="Path 5151" d="M321.839,164.276H331.4V159.9h-3.727C326.945,161.276,322.4,163.89,321.839,164.276Z" transform="translate(-294.956 -142.265)" fill="url(#linear-gradient)"/>
        </g>
      </g>
    </g>
  </g>
</svg>
