<svg id="Group_8" data-name="Group 8" xmlns="http://www.w3.org/2000/svg" xmlns:xlink="http://www.w3.org/1999/xlink" width="257" height="260" viewBox="0 0 257 260">
  <defs>
    <filter id="Union_2" x="50.664" y="51.617" width="206.336" height="208.383" filterUnits="userSpaceOnUse">
      <feOffset dy="3" input="SourceAlpha"/>
      <feGaussianBlur stdDeviation="3" result="blur"/>
      <feFlood flood-opacity="0.161"/>
      <feComposite operator="in" in2="blur"/>
      <feComposite in="SourceGraphic"/>
    </filter>
  </defs>
  <path id="Subtraction_1" data-name="Subtraction 1" d="M87.695,175.389a88.341,88.341,0,0,1-17.674-1.782,87.213,87.213,0,0,1-31.357-13.2A87.951,87.951,0,0,1,6.891,121.829a87.254,87.254,0,0,1-5.11-16.461,88.55,88.55,0,0,1,0-35.347,87.213,87.213,0,0,1,13.2-31.357A87.95,87.95,0,0,1,53.56,6.891a87.255,87.255,0,0,1,16.461-5.11,88.55,88.55,0,0,1,35.347,0,87.214,87.214,0,0,1,31.357,13.2A87.951,87.951,0,0,1,168.5,53.56a87.253,87.253,0,0,1,5.11,16.461,88.548,88.548,0,0,1,0,35.347,87.214,87.214,0,0,1-13.2,31.357A87.952,87.952,0,0,1,121.829,168.5a87.253,87.253,0,0,1-16.461,5.11A88.339,88.339,0,0,1,87.695,175.389Zm0-165.885a78.769,78.769,0,0,0-15.758,1.589A77.764,77.764,0,0,0,43.977,22.857a78.418,78.418,0,0,0-28.329,34.4,77.8,77.8,0,0,0-4.556,14.677,78.954,78.954,0,0,0,0,31.516,77.763,77.763,0,0,0,11.765,27.959,78.418,78.418,0,0,0,34.4,28.329A77.8,77.8,0,0,0,71.936,164.3a78.954,78.954,0,0,0,31.516,0,77.763,77.763,0,0,0,27.959-11.765,78.418,78.418,0,0,0,28.329-34.4,77.8,77.8,0,0,0,4.556-14.677,78.954,78.954,0,0,0,0-31.516,77.764,77.764,0,0,0-11.765-27.959,78.417,78.417,0,0,0-34.4-28.329,77.8,77.8,0,0,0-14.677-4.556A78.767,78.767,0,0,0,87.695,9.5Z" transform="matrix(-0.695, 0.719, -0.719, -0.695, 248, 121.836)" fill="#fff"/>
  <g transform="matrix(1, 0, 0, 1, 0, 0)" filter="url(#Union_2)">
    <path id="Union_2-2" data-name="Union 2" d="M165.9,88.126h-.021c0-.144,0-.288,0-.432A78.731,78.731,0,0,0,164.3,71.936a77.764,77.764,0,0,0-11.765-27.959,78.422,78.422,0,0,0-34.4-28.329,77.775,77.775,0,0,0-14.678-4.556,78.951,78.951,0,0,0-31.516,0A77.764,77.764,0,0,0,43.977,22.857a78.416,78.416,0,0,0-28.329,34.4,77.754,77.754,0,0,0-4.556,14.677A78.731,78.731,0,0,0,9.5,87.695c0,.144,0,.288,0,.432H9.484a4.752,4.752,0,0,1-9.465,0H0c0-.086,0-.171,0-.257v-.175A88.377,88.377,0,0,1,1.781,70.021a87.23,87.23,0,0,1,13.2-31.357A87.95,87.95,0,0,1,53.56,6.892a87.249,87.249,0,0,1,16.461-5.11,88.561,88.561,0,0,1,35.347,0,87.23,87.23,0,0,1,31.357,13.2A87.949,87.949,0,0,1,168.5,53.56a87.249,87.249,0,0,1,5.11,16.461,88.377,88.377,0,0,1,1.781,17.674c0,.144,0,.287,0,.431h-.019a4.753,4.753,0,0,1-9.466,0Z" transform="matrix(-0.69, 0.72, -0.72, -0.69, 248, 121.84)" fill="#f4a5a5"/>
  </g>
</svg>
