<svg xmlns="http://www.w3.org/2000/svg" xmlns:xlink="http://www.w3.org/1999/xlink" width="250" height="90" viewBox="0 0 250 90">
  <defs>
    <linearGradient id="linear-gradient" x1="0.262" y1="0.06" x2="0.659" y2="0.899" gradientUnits="objectBoundingBox">
      <stop offset="0" stop-color="#d67171"/>
      <stop offset="1" stop-color="#dd3939"/>
    </linearGradient>
  </defs>
  <g id="Group_1369" data-name="Group 1369" transform="translate(-3738 -16863)">
    <rect id="Rectangle_294" data-name="Rectangle 294" width="210" height="33" rx="14" transform="translate(3738 16920)" fill="#7e4f9b"/>
    <rect id="Rectangle_295" data-name="Rectangle 295" width="132" height="27" rx="13.5" transform="translate(3800 16894)" fill="#9f74ba"/>
    <circle id="Ellipse_456" data-name="Ellipse 456" cx="45" cy="45" r="45" transform="translate(3898 16863)" fill="#7e4f9b"/>
    <circle id="Ellipse_455" data-name="Ellipse 455" cx="40.5" cy="40.5" r="40.5" transform="translate(3902 16867)" fill="#fdffea"/>
    <text id="Astra_Zeneca" data-name="Astra Zeneca" transform="translate(3820 16912)" fill="#fff" font-size="12" font-family="FuturaPT-Demi, Futura PT" font-weight="300"><tspan x="0" y="0">Astra Zeneca</tspan></text>
    <text id="Symptom_Analyser" data-name="Symptom Analyser" transform="translate(3746 16943)" fill="#fff" font-size="18" font-family="FuturaPT-Bold, Futura PT" font-weight="700"><tspan x="0" y="0">Symptom Analyser</tspan></text>
    <g id="noun-human-heart-1155901" transform="translate(3923.649 16879.891)">
      <path id="Path_1919" data-name="Path 1919" d="M273.5,137.64a27.039,27.039,0,0,0-.974,7.14c0,1.515-.866.325-4,2.7-5.626,4.436-4.436,8.438-2.38,12.008.217.432-.324,1.19-.758,1.407-2.6,1.082-4.76.973-8.872,4.76-1.407,1.3-2.163.974-2.272-.649-.432-4.436,0-10.17,4.219-12.333a10.921,10.921,0,0,1,6.275-9.087,5.527,5.527,0,0,0-5.841-1.622c-2.056.649-2.813-2.488-.866-3.137a8.136,8.136,0,0,1,5.085,0c-.108-.217-.325-.432-.432-.649-1.082-1.839,1.731-3.354,2.813-1.622,1.3,2.164,2.7,4.327,4,6.492a24.572,24.572,0,0,1,1.082-6.275c.324-2.058,3.462-1.192,2.921.863Zm9.3.866a6.677,6.677,0,0,0-7.789,2.6,6.6,6.6,0,0,0-.866,4,2.681,2.681,0,0,0,.432.974c-1.082,0-3.787,1.515-4.111,1.622-3.354,2.38-5.3,6.491-3.029,11.035.432.866,1.623.541,2.6.432,1.839-.324,2.6-3.029,2.38-5.193-.325-2.38,1.515-3.895,3.137-3.246a5.3,5.3,0,0,0,2.921.649c3.246-1.082,3.137-1.3,2.813-2.056-.541-1.082-2.921-3.462-3.354-4.436-1.082-2.488,1.731-4.111,4-3.354,1.948.758,2.813-2.379.866-3.028Zm4,9.412c-3.137,2.6-7.573,6.167-10.277,4.544-.866-.541-2.6,0-2.38,1.3.217,2.163-.432,5.626-2.164,6.707-1.082.649-3.57.432-2.164,1.082,1.731.866,3.354,3.246,4.76,4.652,1.19,1.3,2.813,0,2.7-1.622-.217-3.787,2.056-8.546,8.979-12.441.974-.649,1.731-1.407,2.6-2.056,1.622-1.19-.433-3.462-2.057-2.163Zm3.462,4.219c-3.137.325-6.167,2.921-8.222,5.193-1.839,2.056-3.354,5.3-2.38,8.114.758,2.164,3.462,3.57,5.517,1.947,2.488-1.947.758-9.2.649-9.412,1.407-1.3,3.029-2.488,4.436-2.6,2.056-.216,2.056-3.462,0-3.245Zm-23.26,9.845c-1.947.325-10.061,3.462-10.71,6.6-.758,3.787,1.839,7.681,3.678,10.494,1.515,2.272,3.57,4.327,6.6,3.678,3.462-.649,6.167-3.787,7.465-6.816a1.7,1.7,0,0,0-1.407-2.488,11.529,11.529,0,0,0-3.353.649c-.758.325-2.7,2.164-1.515.432,1.839-2.6,4.544-1.407,6.6-3.137,2.6-2.488-6.057-9.628-7.356-9.412Zm18.608,8.871c-.108-.973-.325-1.622-1.407-1.3a4.091,4.091,0,0,1-4.327-1.3c-1.407-1.515-3.678.758-2.272,2.272a7.02,7.02,0,0,0,.974.866c1.19,1.082,1.515,3.137,1.19,3.246-.217.108-.324-.758-.541-1.082a1.6,1.6,0,0,0-2.921.432c-.432,2.488,1.3,8.006.432,7.682-.217-.108-.217-.541-.217-.758a1.772,1.772,0,0,0-2.921-1.19,5.762,5.762,0,0,0-1.947,3.462c-.325,1.622-.541,2.488-.758,2.6-.325.108-.432-1.622-2.921-1.839-1.407-.108-1.839,1.622-1.407,2.38.541,1.19,2.056,3.462,3.137,4a5.586,5.586,0,0,0,4.76-.108c2.272-1.3,5.734-5.409,7.14-7.9,1.733-3.463,4.438-7.466,4-11.469Z" transform="translate(-254.109 -135.599)" fill="url(#linear-gradient)"/>
    </g>
  </g>
</svg>
