<svg xmlns="http://www.w3.org/2000/svg" width="70.494" height="9.497" viewBox="0 0 70.494 9.497">
  <path id="Path_5311" data-name="Path 5311" d="M33.257,58.323l1.44-3.86,1.348,3.891H33.257Zm4.2,3.921h1.317L35.341,52.9H34.054L30.5,62.244h1.317l1.042-2.88h3.554Zm6.219-1.991c0,.766-.613,1.164-1.685,1.164a1.832,1.832,0,0,1-1.746-.8l-1.256.214a2.943,2.943,0,0,0,2.941,1.471c1.961,0,2.972-1.072,2.972-2.236,0-1.471-1.379-1.869-2.941-2.206-.766-.153-1.654-.429-1.654-1.1,0-.49.46-1.042,1.409-1.042a1.785,1.785,0,0,1,1.624.919l1.1-.46a2.742,2.742,0,0,0-2.573-1.348c-1.654,0-2.727.8-2.727,2.083,0,1.471,1.256,1.746,2.482,2.022C42.663,59.211,43.674,59.456,43.674,60.253Zm3.86-7.353-1.225.521v1.716H45.175v.98h1.134v4.565c-.031.919-.031,1.593,1.379,1.593a7.956,7.956,0,0,0,1.164-.123V61.2a3.764,3.764,0,0,1-.766.153c-.521,0-.521-.368-.521-1.195V56.117h1.287v-.98H47.564V52.9Zm2.359,2.236v7.108h1.195V58.966a3.4,3.4,0,0,1,.306-1.838c.4-.643.95-.858,2.145-.888V55.014a2.553,2.553,0,0,0-2.42,1.379V55.136ZM60.554,52.9v1.164h5.331l-5.3,6.985v1.225h6.832V61.141H61.994l5.3-7.046V52.931h-6.74Zm14.338,2.236v7.108h1.195V58.2a1.975,1.975,0,0,1,.521-1.593,1.85,1.85,0,0,1,1.348-.551,1.53,1.53,0,0,1,1.532.98,4.872,4.872,0,0,1,.061,1.164v4.013h1.195V58.047a4.933,4.933,0,0,0-.123-1.44,2.347,2.347,0,0,0-2.328-1.624,2.438,2.438,0,0,0-2.206,1.256V55.167H74.892Zm18.5,5.392a1.665,1.665,0,0,1-1.654.919c-.8,0-2.145-.49-2.145-2.849,0-.643.123-2.849,2.083-2.849a1.7,1.7,0,0,1,1.654,1.011l1.1-.46a3.176,3.176,0,0,0-2.819-1.409c-2.267,0-3.37,1.808-3.37,3.83A3.368,3.368,0,0,0,91.711,62.4a2.98,2.98,0,0,0,2.7-1.409ZM69.132,57.955H72.9c-.092-1.869-1.164-2.175-1.9-2.175C69.99,55.78,69.285,56.515,69.132,57.955ZM73.881,60.9a2.919,2.919,0,0,1-2.727,1.471c-2.083,0-3.309-1.409-3.309-3.8,0-2.665,1.746-3.676,3.247-3.676A2.96,2.96,0,0,1,74.065,57.4a7.067,7.067,0,0,1,.123,1.44H69.1c-.031,1.195.46,2.7,2.145,2.665a1.715,1.715,0,0,0,1.471-.8ZM82.7,57.955h3.768c-.092-1.869-1.164-2.175-1.9-2.175C83.531,55.78,82.826,56.515,82.7,57.955ZM87.422,60.9A2.918,2.918,0,0,1,84.7,62.367c-2.083,0-3.309-1.409-3.309-3.8,0-2.665,1.746-3.676,3.247-3.676A2.96,2.96,0,0,1,87.606,57.4a7.067,7.067,0,0,1,.123,1.44H82.612c-.031,1.195.46,2.7,2.145,2.665a1.715,1.715,0,0,0,1.471-.8Zm13.572,1.348H99.738a6.275,6.275,0,0,1-.153-1.042,3.12,3.12,0,0,1-2.39,1.134,2.144,2.144,0,0,1-2.39-2.022,1.9,1.9,0,0,1,.306-1.072c.4-.613,1.164-1.072,3.278-1.256l1.134-.092V57.71c0-.735,0-1.961-1.593-1.961-.98,0-1.348.49-1.44.919l-1.1-.46c.031-.031.031-.092.061-.123A2.629,2.629,0,0,1,97.9,54.83a3.365,3.365,0,0,1,2.053.613,2.371,2.371,0,0,1,.766,1.777l.061,3.646A5.826,5.826,0,0,0,100.994,62.244Zm-1.654-1.961c.184-.4.184-.551.184-1.593a17.867,17.867,0,0,0-1.869.337c-1.317.276-1.532.8-1.532,1.287,0,.582.46,1.042,1.348,1.042A1.92,1.92,0,0,0,99.339,60.283ZM59.727,62.244H58.5a6.276,6.276,0,0,1-.153-1.042,3.12,3.12,0,0,1-2.39,1.134,2.173,2.173,0,0,1-2.42-2.022,1.9,1.9,0,0,1,.306-1.072c.4-.613,1.164-1.072,3.278-1.256l1.134-.092V57.71c0-.735,0-1.961-1.593-1.961-1.011,0-1.348.49-1.44.919l-1.1-.46c.031-.031.031-.092.061-.123a2.629,2.629,0,0,1,2.451-1.256,3.365,3.365,0,0,1,2.053.613,2.371,2.371,0,0,1,.766,1.777l.031,3.646A8.821,8.821,0,0,0,59.727,62.244ZM58.1,60.283c.184-.4.184-.551.184-1.593a17.866,17.866,0,0,0-1.869.337c-1.317.276-1.532.8-1.532,1.287,0,.582.46,1.042,1.348,1.042A1.977,1.977,0,0,0,58.1,60.283Z" transform="translate(-30.5 -52.9)" fill="#fcaf17"/>
</svg>
